<svg width="135" height="28" viewBox="0 0 135 28" fill="none" xmlns="http://www.w3.org/2000/svg">
<path d="M0.0880481 27V1.224H9.16005C10.384 1.224 11.524 1.428 12.58 1.836C13.66 2.22 14.596 2.772 15.388 3.492C16.18 4.212 16.804 5.076 17.26 6.084C17.716 7.068 17.944 8.16 17.944 9.36C17.944 10.584 17.716 11.7 17.26 12.708C16.804 13.692 16.18 14.544 15.388 15.264C14.596 15.984 13.66 16.548 12.58 16.956C11.524 17.34 10.384 17.532 9.16005 17.532H4.94805V27H0.0880481ZM9.23205 12.924C10.504 12.924 11.464 12.564 12.112 11.844C12.76 11.124 13.084 10.296 13.084 9.36C13.084 8.904 13 8.46 12.832 8.028C12.688 7.596 12.448 7.224 12.112 6.912C11.8 6.576 11.404 6.312 10.924 6.12C10.444 5.928 9.88005 5.832 9.23205 5.832H4.94805V12.924H9.23205ZM20.8887 9.36H25.3167V11.808H25.6047C25.8207 11.376 26.1087 10.98 26.4687 10.62C26.8287 10.26 27.2247 9.948 27.6567 9.684C28.1127 9.42 28.5927 9.216 29.0967 9.072C29.6247 8.928 30.1407 8.856 30.6447 8.856C31.2687 8.856 31.7967 8.916 32.2287 9.036C32.6847 9.156 33.0687 9.312 33.3807 9.504L32.1207 13.788C31.8327 13.644 31.5087 13.536 31.1487 13.464C30.8127 13.368 30.3927 13.32 29.8887 13.32C29.2407 13.32 28.6527 13.452 28.1247 13.716C27.5967 13.956 27.1407 14.304 26.7567 14.76C26.3967 15.216 26.1087 15.756 25.8927 16.38C25.7007 16.98 25.6047 17.64 25.6047 18.36V27H20.8887V9.36ZM45.7898 25.128H45.5018C44.9498 25.8 44.2778 26.376 43.4858 26.856C42.7178 27.336 41.7218 27.576 40.4978 27.576C39.5858 27.576 38.7218 27.42 37.9058 27.108C37.1138 26.82 36.4178 26.412 35.8178 25.884C35.2178 25.356 34.7498 24.72 34.4138 23.976C34.0778 23.232 33.9098 22.416 33.9098 21.528C33.9098 20.616 34.0898 19.8 34.4498 19.08C34.8098 18.336 35.3138 17.7 35.9618 17.172C36.6098 16.644 37.3658 16.248 38.2298 15.984C39.1178 15.696 40.0778 15.552 41.1098 15.552C42.2618 15.552 43.2098 15.648 43.9538 15.84C44.6978 16.008 45.3098 16.188 45.7898 16.38V15.84C45.7898 14.904 45.4178 14.136 44.6738 13.536C43.9298 12.912 43.0058 12.6 41.9018 12.6C40.2698 12.6 38.8898 13.284 37.7618 14.652L34.3418 12.312C36.2138 9.96 38.7698 8.784 42.0098 8.784C44.7458 8.784 46.8338 9.432 48.2738 10.728C49.7138 12 50.4338 13.896 50.4338 16.416V27H45.7898V25.128ZM45.7898 19.836C45.2378 19.572 44.6618 19.368 44.0618 19.224C43.4858 19.056 42.8498 18.972 42.1538 18.972C41.0258 18.972 40.1498 19.224 39.5258 19.728C38.9258 20.208 38.6258 20.808 38.6258 21.528C38.6258 22.248 38.9138 22.824 39.4898 23.256C40.0898 23.688 40.7738 23.904 41.5418 23.904C42.1658 23.904 42.7418 23.796 43.2698 23.58C43.7978 23.34 44.2418 23.04 44.6018 22.68C44.9858 22.296 45.2738 21.864 45.4658 21.384C45.6818 20.88 45.7898 20.364 45.7898 19.836ZM70.8196 22.5C70.0516 23.988 68.9716 25.212 67.5796 26.172C66.2116 27.108 64.4956 27.576 62.4316 27.576C61.0636 27.576 59.8036 27.348 58.6516 26.892C57.5236 26.412 56.5396 25.752 55.6996 24.912C54.8836 24.072 54.2356 23.088 53.7556 21.96C53.2996 20.808 53.0716 19.548 53.0716 18.18C53.0716 16.812 53.2996 15.552 53.7556 14.4C54.2356 13.248 54.8836 12.264 55.6996 11.448C56.5396 10.608 57.5236 9.96 58.6516 9.504C59.8036 9.024 61.0636 8.784 62.4316 8.784C64.4716 8.784 66.1876 9.252 67.5796 10.188C68.9716 11.124 69.9916 12.336 70.6396 13.824L66.3196 15.624C65.9116 14.808 65.3836 14.196 64.7356 13.788C64.1116 13.356 63.3196 13.14 62.3596 13.14C61.7356 13.14 61.1476 13.26 60.5956 13.5C60.0436 13.74 59.5516 14.076 59.1196 14.508C58.7116 14.94 58.3876 15.468 58.1476 16.092C57.9076 16.716 57.7876 17.412 57.7876 18.18C57.7876 18.948 57.9076 19.644 58.1476 20.268C58.3876 20.892 58.7116 21.42 59.1196 21.852C59.5516 22.284 60.0436 22.62 60.5956 22.86C61.1476 23.1 61.7356 23.22 62.3596 23.22C63.3436 23.22 64.1716 23.004 64.8436 22.572C65.5396 22.116 66.0916 21.468 66.4996 20.628L70.8196 22.5ZM75.537 13.392H72.441V9.36H75.537V3.96H80.253V9.36H84.573V13.392H80.253V20.232C80.253 20.64 80.289 21.024 80.361 21.384C80.457 21.72 80.625 22.008 80.865 22.248C81.201 22.632 81.681 22.824 82.305 22.824C82.713 22.824 83.037 22.788 83.277 22.716C83.517 22.62 83.745 22.5 83.961 22.356L85.293 26.496C84.741 26.76 84.141 26.952 83.493 27.072C82.869 27.216 82.173 27.288 81.405 27.288C80.517 27.288 79.713 27.156 78.993 26.892C78.297 26.604 77.709 26.22 77.229 25.74C76.101 24.66 75.537 23.124 75.537 21.132V13.392ZM90.918 6.804C90.51 6.804 90.114 6.732 89.73 6.588C89.37 6.42 89.046 6.204 88.758 5.94C88.494 5.652 88.278 5.328 88.11 4.968C87.966 4.608 87.894 4.212 87.894 3.78C87.894 3.348 87.966 2.952 88.11 2.592C88.278 2.232 88.494 1.92 88.758 1.656C89.046 1.368 89.37 1.152 89.73 1.008C90.114 0.839998 90.51 0.755999 90.918 0.755999C91.758 0.755999 92.478 1.056 93.078 1.656C93.678 2.232 93.978 2.94 93.978 3.78C93.978 4.62 93.678 5.34 93.078 5.94C92.478 6.516 91.758 6.804 90.918 6.804ZM88.578 27V9.36H93.294V27H88.578ZM114.243 22.5C113.475 23.988 112.395 25.212 111.003 26.172C109.635 27.108 107.919 27.576 105.855 27.576C104.487 27.576 103.227 27.348 102.075 26.892C100.947 26.412 99.9626 25.752 99.1226 24.912C98.3066 24.072 97.6586 23.088 97.1786 21.96C96.7226 20.808 96.4946 19.548 96.4946 18.18C96.4946 16.812 96.7226 15.552 97.1786 14.4C97.6586 13.248 98.3066 12.264 99.1226 11.448C99.9626 10.608 100.947 9.96 102.075 9.504C103.227 9.024 104.487 8.784 105.855 8.784C107.895 8.784 109.611 9.252 111.003 10.188C112.395 11.124 113.415 12.336 114.063 13.824L109.743 15.624C109.335 14.808 108.807 14.196 108.159 13.788C107.535 13.356 106.743 13.14 105.783 13.14C105.159 13.14 104.571 13.26 104.019 13.5C103.467 13.74 102.975 14.076 102.543 14.508C102.135 14.94 101.811 15.468 101.571 16.092C101.331 16.716 101.211 17.412 101.211 18.18C101.211 18.948 101.331 19.644 101.571 20.268C101.811 20.892 102.135 21.42 102.543 21.852C102.975 22.284 103.467 22.62 104.019 22.86C104.571 23.1 105.159 23.22 105.783 23.22C106.767 23.22 107.595 23.004 108.267 22.572C108.963 22.116 109.515 21.468 109.923 20.628L114.243 22.5ZM133.72 22.752C132.904 24.192 131.8 25.356 130.408 26.244C129.04 27.132 127.36 27.576 125.368 27.576C124.024 27.576 122.776 27.348 121.624 26.892C120.496 26.412 119.512 25.752 118.672 24.912C117.832 24.072 117.172 23.088 116.692 21.96C116.236 20.808 116.008 19.548 116.008 18.18C116.008 16.908 116.236 15.708 116.692 14.58C117.148 13.428 117.784 12.432 118.6 11.592C119.416 10.728 120.376 10.044 121.48 9.54C122.608 9.036 123.844 8.784 125.188 8.784C126.604 8.784 127.864 9.024 128.968 9.504C130.072 9.96 130.996 10.608 131.74 11.448C132.484 12.264 133.048 13.236 133.432 14.364C133.816 15.492 134.008 16.716 134.008 18.036C134.008 18.204 134.008 18.348 134.008 18.468C133.984 18.612 133.972 18.744 133.972 18.864C133.948 18.984 133.936 19.116 133.936 19.26H120.652C120.748 19.98 120.94 20.604 121.228 21.132C121.54 21.636 121.912 22.068 122.344 22.428C122.8 22.764 123.292 23.016 123.82 23.184C124.348 23.328 124.888 23.4 125.44 23.4C126.52 23.4 127.408 23.16 128.104 22.68C128.824 22.176 129.388 21.552 129.796 20.808L133.72 22.752ZM129.436 15.912C129.412 15.6 129.304 15.252 129.112 14.868C128.944 14.484 128.68 14.124 128.32 13.788C127.984 13.452 127.552 13.176 127.024 12.96C126.52 12.744 125.908 12.636 125.188 12.636C124.18 12.636 123.292 12.924 122.524 13.5C121.756 14.076 121.216 14.88 120.904 15.912H129.436Z" fill="#20B486"/>
</svg>
